<?xml version="1.0" encoding="utf-8"?>
<!-- Generator: Adobe Illustrator 23.0.1, SVG Export Plug-In . SVG Version: 6.00 Build 0)  -->
<svg version="1.1" id="Livello_1" xmlns="http://www.w3.org/2000/svg" xmlns:xlink="http://www.w3.org/1999/xlink" x="0px" y="0px"
	 viewBox="0 0 118.9 151.7" style="enable-background:new 0 0 118.9 151.7;" xml:space="preserve">
<style type="text/css">
	.st0{fill-rule:evenodd;clip-rule:evenodd;}
	.st1{fill-rule:evenodd;clip-rule:evenodd;fill:#6A3E00;}
	.st2{fill-rule:evenodd;clip-rule:evenodd;fill:none;stroke:#000000;stroke-miterlimit:10;}
	.st3{fill:none;stroke:#000000;stroke-miterlimit:10;}
	.st4{fill-rule:evenodd;clip-rule:evenodd;fill:#BF2E00;}
	.st5{fill-rule:evenodd;clip-rule:evenodd;fill:#FFFFFF;}
	.st6{fill-rule:evenodd;clip-rule:evenodd;fill:#AA6F07;}
	.st7{fill-rule:evenodd;clip-rule:evenodd;fill:#4C1E07;}
	.st8{fill-rule:evenodd;clip-rule:evenodd;fill:#C9812B;}
	.st9{fill-rule:evenodd;clip-rule:evenodd;fill:#FF8800;}
	.st10{fill:#020201;}
</style>
<title>wapuu</title>
<desc>Created with Sketch.</desc>
<g id="wapuu">
	<path class="st0" d="M110.6,22.4c-0.7-0.2-1.8-0.3-6.2-0.3c-1.4,0-3.1,0-4.8,0c-2,0-4.1,0-6.1,0c-3.4,0-8.1,0-11.4-0.2
		c-5.4-3.9-11.5-6-18.4-6.2c-14.8-0.5-27.9,5.9-35,16.9c-2.4,2.3-6.9,4.8-8.1,5.1c-2,0.5-3.4,2.2-3.1,4.3c0.2,1.5,1.2,3.1,3.5,3.8
		c-0.3,0.3-0.5,0.5-0.8,0.8c-1.6,1.9-2.2,4-1.8,6c0.1,0.4,0.2,0.8,0.3,1.1c-3.4,5.7-5.1,12.3-5.1,19c0,1.7,0.1,3.4,0.3,5
		c-0.5-0.1-1.1-0.1-1.6-0.1c-2.6,0-4.9,1.1-6.5,3.1c-1.7,2.1-2.4,5-1.7,8.1c1.3,6.2,10.7,16.8,18.3,18.6c0.7,0.2,1.5,0.3,2.1,0.3
		c2,0,3.7-0.8,4.7-2.4c0.3-0.5,0.6-1,0.7-1.5c5.1,3.5,11.1,5.7,17.4,6.4c1.4,4.5,5,5.2,7.3,5.2c3.4,0,6.4-1.4,8.5-4
		c0.2,0,0.4,0,0.6,0c1.5,0,3.3-0.1,5.3-0.4c-0.2,0.2-0.3,0.3-0.5,0.5c1.7-0.9,3.5-1.4,5.3-2c1.6-1.2,3.2-2.5,4.9-3.4
		c1.7-0.9,3.6-1.7,5.5-2.1c0.8-0.1,1.6-0.2,2.4-0.3c0,0,0-0.1,0-0.1c16.2-12.4,14.9-46.5,9.6-61.7c-0.4-1.1-0.8-2.1-1.2-3.1
		c0.7,0.1,1.3,0.1,1.9,0.1c1.5,0,2.9-0.2,4.3-0.6c8.4-2.5,12.2-8.8,12.2-12.2C113.3,24.2,112.2,22.8,110.6,22.4z"/>
	<path id="WordPress-blue2" class="st1" d="M82.8,62.2c-5.2-4.7-8.8-7.6-14-8.6c-3.5-0.7-7.7,0.2-11.3,1c-2.8,0.6-5.2,1.2-7.1,1
		c-2.9-0.3-5.2-1.8-5.8-3.9c-0.5-1.4-0.3-3.7,2.9-6.5c1.3-1.2,2.9-2.1,4.7-2.9c-2.5,0-5-0.5-7.4-1.7c-3.1,4.3-10.9,7.4-13.3,6.3
		c-0.5-0.2-1.1-0.6-1.7-1.2c-0.1,0-0.1,0.1-0.2,0.1c0.6,0.6,1.1,1.4,1.3,2.4c0.4,2-0.3,4.1-1.9,5.7c-1.4,1.4-3.1,2.1-4.7,2.1
		c-1.1,0-2.1-0.4-2.8-1.1c-3.2,5.3-5.1,11.4-5.1,18c0,3.1,0.4,6.1,1.2,8.9c3.2,2.7,8.6,13.3,9.7,15.9c0.1,0.1,0.1,0.3,0.2,0.5
		c5.5,5.1,12.8,8.5,20.8,9.1c-0.1-1.3-0.1-2.7,0-4.1c0.1-1.7,0.1-3.5-0.1-4.9c-0.2-1.2-0.5-2.5-0.8-3.8c-1.2-5-2.6-10.8,2.2-14
		c0.9-0.6,1.9-0.9,3-0.9c4.3,0,8.3,5.2,10.3,9.2c2.8-4.5,7.3-7.3,12.7-7.9c2.7-0.3,5.5,0.1,7.7,0.9c0.8-2.9,1.2-5.9,1.2-8.9
		C84.5,69.2,83.9,65.7,82.8,62.2"/>
	<path class="st2" d="M63.8,62c0,0,13.2-1.3,21.3,5.9"/>
	<path class="st2" d="M86.1,73.8c0,0-11,5.6-21.2-0.8"/>
	<path class="st3" d="M32.9,95.9c0,0,1.5,9.8,2.5,9.8"/>
	<path class="st3" d="M43.7,97.1c0,0,1.7,10.4,3,10.4"/>
	<path id="WordPress-blue1" class="st4" d="M60.3,54c-1,0.2-2,0.4-2.9,0.6c-2.8,0.6-5.2,1.2-7.1,1c-2.9-0.3-5.2-1.8-5.8-3.9
		c-0.5-1.4-0.3-3.7,2.9-6.5c0,0,0.1-0.1,0.1-0.1c-2.1-0.7-4.2-1.1-6.5-1.3c-3.5,2.4-8,3.8-9.7,3c-0.5-0.2-1.1-0.6-1.7-1.2
		c-0.1,0-0.1,0.1-0.2,0.1c0.6,0.6,1.1,1.4,1.3,2.4c0.4,2-0.3,4.1-1.9,5.7c-1.4,1.4-3.1,2.1-4.7,2.1c-1.1,0-2.1-0.4-2.8-1.1
		c-3.2,5.3-5.1,11.4-5.1,18c0,3.1,0.4,6.1,1.2,8.9c2.2,1.8,5.3,7.1,7.5,11.3c4.1,2.6,9.1,4.2,14.3,4.2c2.9,0,5.7-0.5,8.3-1.3
		c-0.1-0.5-0.2-0.9-0.3-1.4c-1.2-5-2.6-10.8,2.2-14c0.9-0.6,1.9-0.9,3-0.9c3.3,0,6.4,3.1,8.6,6.3c3.1-4.4,4.9-9.7,4.9-15.4
		C66,64.2,63.9,58.5,60.3,54"/>
	<path id="WordPress-logo" class="st5" d="M37,91c-1.5,0.1-2.7,0-4.2-0.3c-0.4-4.4-0.7-10,1.5-19.6c4.1,10.5,8.5,18.2,8.5,18.2
		C42.1,89.7,39.8,90.8,37,91 M30.2,89.9c-11.6-5.3-13.7-17.8-9.8-27.4C20.5,72,23.2,79.4,30.2,89.9 M45.9,87.5
		c1.8-7.9,4.9-15.5,6.7-23.4c0.3-1.5,0.6-3.9,0.1-6.6C58,65.9,57.4,78.9,45.9,87.5 M22,59.3c5.2-8.1,15.2-14.6,26.2-6.6
		c-0.1,0-7,0.3-2,7.8c2.7,4,2.9,7.3,0.7,13.9c-0.8,3.3-1,4.2-1.7,7.6c-3.3-8-6.1-14.8-8.2-23.5c1.9-0.3,4-0.6,2.9-1.8
		c-0.1-0.2-10.1,0.8-10.2,0.9c-0.8,0.1-0.9,1-0.9,1c-0.1,0.7,0,0.7,2.2,0.6c0.6,3.1,0.8,4.5,2.2,8.9c-1,4.2-2.1,8.6-2.2,15.4
		c-4.5-9-6.4-15.3-6.7-23.2c0.6-0.4,1.5-0.2,2.1-0.8c0.4-0.4,0.6-1.3,0.1-1.4C24.8,57.8,23.5,59,22,59.3 M37.8,47.4
		C20.6,48.8,9.4,74.7,24.6,88.3c15.4,13.7,34.5-4,33.8-20.5C57.9,55,47.3,47,37.8,47.4"/>
	<path id="sole-left" class="st6" d="M62,93.8c0,0,0-0.1,0-0.1c-0.1-0.4-0.2-0.8-0.3-1.2c-1-3.5-5.6-10.4-9.1-10.4
		c-0.5,0-1,0.2-1.5,0.5c-3.1,2.1-2.5,5.8-1.2,11.2c0.3,1.3,0.7,2.7,0.9,4c0.3,1.7,0.2,3.6,0.1,5.4c-0.1,2.8-0.2,5.8,1,7
		c0.5,0.6,1.4,0.8,2.5,0.8c0.3,0,0.7,0,1-0.1c0.1,0,0.2,0,0.3,0c0.2,0,0.4-0.1,0.6-0.1c0.1,0,0.2,0,0.3-0.1c0.2-0.1,0.4-0.1,0.6-0.2
		c0.1,0,0.1,0,0.2-0.1c0.2-0.1,0.5-0.2,0.7-0.4c0,0,0,0,0.1,0c0.2-0.1,0.4-0.3,0.6-0.4c0.1,0,0.1-0.1,0.2-0.1
		c0.1-0.1,0.3-0.2,0.4-0.4c0,0,0.1-0.1,0.1-0.1c0.1-0.2,0.3-0.3,0.4-0.5c0,0,0,0,0-0.1c0.1-0.2,0.3-0.4,0.4-0.6c0,0,0.1-0.1,0.1-0.1
		c0.1-0.1,0.2-0.3,0.2-0.4c0-0.1,0.1-0.1,0.1-0.2c0.1-0.1,0.1-0.2,0.2-0.3c0-0.1,0.1-0.1,0.1-0.2c0-0.1,0.1-0.2,0.1-0.3
		c0.1-0.2,0.2-0.4,0.2-0.6c0,0,0,0,0,0c0-0.1,0.1-0.2,0.1-0.4c0.1-0.5,0.2-0.8,0.2-0.9c0-0.1,0-0.1,0-0.2c1-3.1,1.4-5.7,0.6-9.5
		C62.1,94.5,62.1,94.2,62,93.8"/>
	<path id="sole-right-outline" class="st0" d="M24.3,105.7L24.3,105.7c-0.5,0-1.1-0.1-1.7-0.2C16,103.9,7,94,5.8,88.5
		c-0.5-2.5,0-4.8,1.3-6.4c1.2-1.5,3-2.3,5-2.3c1.8,0,3.6,0.7,5.2,1.9c3.2,2.5,8.7,13.3,9.9,16c0.5,1.1,1.5,4.5,0.1,6.6
		C26.9,104.9,26,105.7,24.3,105.7L24.3,105.7L24.3,105.7L24.3,105.7z M12.1,81.7c-1.4,0-2.6,0.6-3.5,1.6c-1,1.2-1.3,2.9-0.9,4.8
		c1,4.8,9.6,14.2,15.4,15.5c0.4,0.1,0.8,0.2,1.2,0.2c0.9,0,1.2-0.4,1.4-0.6c0.7-1.1,0.3-3.4-0.3-4.7c-1.6-3.7-6.7-13.3-9.3-15.3
		C14.9,82.2,13.5,81.7,12.1,81.7L12.1,81.7L12.1,81.7L12.1,81.7z"/>
	<path id="sole-right" class="st6" d="M8.7,83.3c-1,1.2-1.3,2.9-0.9,4.8c1,4.8,9.6,14.2,15.4,15.5c0.4,0.1,0.8,0.2,1.2,0.2
		c0.9,0,1.2-0.4,1.4-0.6c0.7-1.1,0.3-3.4-0.3-4.7c-1.6-3.7-6.7-13.3-9.3-15.3c-1.3-1-2.7-1.5-4-1.5C10.7,81.7,9.5,82.2,8.7,83.3"/>
	<path id="hand-right-outline" class="st0" d="M24.3,55.9L24.3,55.9c-2.1,0-3.7-1.4-4.1-3.5c-0.3-1.4,0.2-3,1.4-4.4
		c1.5-1.8,4-3.2,5.8-3.2c0.4,0,0.8,0.1,1.1,0.2c1.2,0.5,2.1,1.6,2.4,3.1c0.4,2-0.3,4.1-1.9,5.7C27.6,55.1,25.9,55.9,24.3,55.9
		L24.3,55.9L24.3,55.9L24.3,55.9z M27.3,46.7c-1.1,0-3,0.9-4.3,2.5c-0.5,0.6-1.2,1.7-1,2.8c0.3,1.6,1.4,1.9,2.2,1.9
		c1.1,0,2.3-0.6,3.3-1.6c1.1-1.1,1.6-2.5,1.3-3.9c-0.2-0.8-0.6-1.5-1.2-1.7C27.6,46.8,27.5,46.7,27.3,46.7L27.3,46.7L27.3,46.7
		L27.3,46.7z"/>
	<path id="hand-right" class="st7" d="M22.1,52c0.3,1.6,1.4,1.9,2.2,1.9c1.1,0,2.3-0.6,3.3-1.6c1.1-1.1,1.6-2.5,1.3-3.9
		c-0.2-0.8-0.6-1.5-1.2-1.7c-0.1,0-0.2-0.1-0.4-0.1c-1.1,0-3,0.9-4.3,2.5C22.6,49.8,21.9,50.9,22.1,52"/>
	<path id="ear-left" class="st8" d="M93.4,26.1c-3.9,0-9.5,0-12.9-0.3c-0.3,0-0.6,0-0.7,0c0.3,0.4,0.9,1.1,1.9,2l0.3,0.2
		c6.8,5.8,11.9,7,15,7h0c1.1,0,2.2-0.2,3.2-0.5c4.8-1.4,7.7-4.4,8.9-6.7c0.4-0.9,0.5-1.4,0.5-1.7c-0.6-0.1-2.3-0.1-5-0.1
		c-1.4,0-3.1,0-4.8,0C97.6,26.1,95.5,26.1,93.4,26.1"/>
	<path id="ear-right" class="st8" d="M21.3,41.6c-0.1,0-0.1,0.1-0.1,0.1c0,0,0.1,0.1,0.3,0.3c0.4,0.3,2,1,6.4-0.1
		c-0.1-1-0.1-2.3,0.4-3.8C25.7,39.8,22.8,41.3,21.3,41.6"/>
	<path class="st9" d="M78.6,106c1.1-0.6,2.2-1.1,3.4-1.5c0.1-0.2,0.2-0.4,0.2-0.6c-2,1.2-3.9,2.1-5.7,2.8c-0.2,0.3-0.3,0.6-0.5,0.9
		C76.9,107.1,77.7,106.5,78.6,106z"/>
	<path id="left-body" class="st7" d="M92.4,43.2c-1.1-3.1-2.4-5.9-4-8.4c-2.3-1.1-5-2.8-7.9-5.3l-0.2-0.2c-3.2-2.7-2.8-3.9-2.6-4.3
		c0.1-0.3,0.3-0.6,0.6-0.8c-4.3-2.8-9.3-4.3-14.8-4.5C50,19.3,38.1,25.1,31.7,35.1c-1.7,2.8-2.3,5.3-1.7,7.2
		c0.4,1.4,1.4,2.3,2.2,2.7c1.2,0.5,9.1-2.2,11.4-6.3c0.1-0.2,0.3-0.4,0.6-0.5c0.3-0.1,0.5,0,0.8,0.1c5.4,3.3,11.4,1.8,16.6,0.1
		c0.5-0.2,1.1,0.1,1.2,0.6c0.1,0.3,0,0.6-0.1,0.8c3.4-0.1,6.9,0.4,10,1.6c0.5,0.2,0.7,0.8,0.6,1.3s-0.8,0.7-1.3,0.6
		c-7.5-3-17.7-1.5-23.1,3.3c-1.9,1.6-2.7,3.2-2.3,4.5c0.4,1.3,2.1,2.3,4.1,2.5c1.6,0.2,3.9-0.4,6.4-0.9c3.9-0.9,8.2-1.8,12.2-1
		C75.5,53,79.7,56.8,86,62.5l0.8,0.7c0.4,0.4,0.4,1,0.1,1.4c-0.2,0.2-0.5,0.3-0.7,0.3c-0.2,0-0.4-0.1-0.6-0.2
		c0.6,2.7,0.9,5.4,0.9,8.2c0,3.3-0.5,6.6-1.4,9.8c1,0.6,1.9,1.3,2.5,2c0.3,0.4,0.3,1-0.2,1.4c-0.4,0.3-1,0.3-1.4-0.2
		c-1.7-2.2-6-3.5-10.2-3c-3.1,0.3-8.7,1.8-11.9,8.1c0.1,0.3,0.2,0.6,0.3,0.9c1.7,5.7,1.3,9.2,0,13.3c-0.1,0.7-0.4,1.5-0.7,2.3
		c4.3,0,11.9-0.9,20-6.5C98.7,90.4,97.4,57.3,92.4,43.2"/>
	<path class="st0" d="M110.1,24.3c-0.5-0.1-1.6-0.2-5.7-0.2c-1.4,0-3.1,0-4.8,0c-2,0-4.1,0-6.2,0c-3.6,0-8.7,0-12.1-0.3
		c-5.1-3.8-11.1-5.9-17.7-6.1C49.4,17.3,36.9,23.4,30.2,34c-2.6,2.6-7.6,5.4-9.2,5.8c-0.8,0.2-1.4,0.7-1.6,1.4
		c-0.2,0.7,0,1.5,0.6,2.1c0.5,0.5,1.6,1.2,3.9,1.2c1.2,0,2.7-0.2,4.6-0.7c0.7,1.6,2,2.7,3,3.1c2.4,1.1,10.2-2,13.3-6.3
		c2.4,1.3,4.9,1.8,7.4,1.7c-1.7,0.8-3.3,1.8-4.7,2.9c-3.2,2.8-3.3,5.1-2.9,6.5c0.6,2,2.9,3.6,5.8,3.9c1.9,0.2,4.3-0.3,7.1-1
		c4.1-0.9,6.2-1.5,9.5-1.3c0,0,0.9,0.1,1.8,0.2c6.1,1,12.5,7.1,14,8.6c1.1,3.4,1.7,7,1.7,10.6c0,3-0.4,6-1.2,8.9
		c-2.3-0.8-5-1.2-7.7-0.9c-5.4,0.5-10,3.4-12.7,7.9c-2-4-6-9.2-10.3-9.2c-1.1,0-2.1,0.3-3,0.9c-4.8,3.2-3.5,8.9-2.2,14
		c0.3,1.4,0.6,2.6,0.8,3.8c0.2,1.4,0.2,3.2,0.1,4.9c-0.1,3.4-0.2,6.9,1.8,8.9c1,1.1,2.5,1.6,4.4,1.6c3.9,0,6.5-2,8-4.3
		c0.3,0,0.7,0,1.1,0c2.5,0,6.1-0.3,10.2-1.6c-0.5,0.7-1,1.4-1.5,2.1c0.5-0.2,1-0.3,1.5-0.5c0.8-0.6,1.6-1.2,2.4-1.8
		c0.2-0.3,0.3-0.6,0.5-0.9c1.8-0.7,3.8-1.7,5.7-2.8c-0.1,0.2-0.2,0.4-0.2,0.6c0.7-0.2,1.4-0.4,2.1-0.6c0.1,0,0.2,0,0.2,0
		c0.2-0.5,0.3-1.1,0.5-1.6c9-6.4,11.8-19.2,12.6-28.8c1-12.3-0.9-24.4-3.2-31.1c-0.8-2.3-1.8-4.5-2.9-6.6c2.2,0.7,4,1,5.5,1h0
		c1.3,0,2.6-0.2,3.7-0.5c7.6-2.3,10.8-7.9,10.8-10.3C111.3,25.2,110.9,24.5,110.1,24.3z M27.9,41.8c-4.4,1.2-6,0.4-6.4,0.1
		c-0.2-0.1-0.3-0.3-0.3-0.3c0,0,0,0,0.1-0.1c1.5-0.3,4.4-1.8,6.9-3.6C27.8,39.5,27.8,40.8,27.9,41.8z M61.6,104.4c0,0.1,0,0.1,0,0.2
		c0,0.3-1.2,6.5-7.2,6.5c-1.2,0-2-0.3-2.5-0.8c-1.2-1.3-1.1-4.2-1-7c0.1-1.8,0.1-3.7-0.1-5.4c-0.2-1.3-0.5-2.7-0.9-4
		c-1.3-5.4-1.9-9.1,1.2-11.2c0.5-0.3,1-0.5,1.5-0.5c3.5,0,8.1,6.9,9.1,10.4C63.1,97.7,62.8,100.7,61.6,104.4z M92.4,43.2
		c5,14.1,6.3,47.2-9,57.8c-8.1,5.6-15.7,6.5-20,6.5c0.4-0.8,0.6-1.7,0.7-2.3c1.3-4,1.7-7.5,0-13.3c-0.1-0.3-0.2-0.6-0.3-0.9
		c3.2-6.4,8.8-7.8,11.9-8.1c4.3-0.4,8.6,0.8,10.2,3c0.3,0.4,0.9,0.5,1.4,0.2c0.4-0.3,0.5-0.9,0.2-1.4c-0.6-0.8-1.5-1.5-2.5-2
		c0.9-3.2,1.4-6.4,1.4-9.8c0-2.8-0.3-5.5-0.9-8.2c0.2,0.2,0.4,0.2,0.6,0.2c0.3,0,0.5-0.1,0.7-0.3c0.4-0.4,0.3-1-0.1-1.4L86,62.5
		c-6.3-5.7-10.5-9.5-16.9-10.8c-3.9-0.8-8.3,0.2-12.2,1c-2.5,0.6-4.9,1.1-6.4,0.9c-2.1-0.2-3.7-1.2-4.1-2.5
		c-0.4-1.2,0.4-2.8,2.3-4.5c5.5-4.8,15.6-6.3,23.1-3.3c0.5,0.2,1.1,0,1.3-0.6c0.2-0.5,0-1.1-0.6-1.3c-3-1.2-6.5-1.7-10-1.6
		c0.1-0.2,0.2-0.5,0.1-0.8c-0.2-0.5-0.7-0.8-1.2-0.6c-5.2,1.7-11.2,3.2-16.6-0.1c-0.2-0.1-0.5-0.2-0.8-0.1c-0.3,0.1-0.5,0.2-0.6,0.5
		c-2.3,4.1-10.1,6.9-11.4,6.3c-0.7-0.3-1.7-1.2-2.2-2.7c-0.6-2,0-4.5,1.7-7.2C38.1,25.1,50,19.3,63.5,19.7
		c5.5,0.2,10.4,1.7,14.8,4.5c-0.3,0.2-0.5,0.4-0.6,0.8c-0.1,0.4-0.6,1.6,2.6,4.3l0.2,0.2c2.9,2.5,5.5,4.2,7.9,5.3
		C90,37.3,91.3,40.1,92.4,43.2z M108.9,27.8c-1.2,2.3-4.1,5.2-8.9,6.7c-1,0.3-2.1,0.5-3.2,0.5h0c-3.1,0-8.2-1.2-15-7l-0.3-0.2
		c-1-0.8-1.6-1.6-1.9-2c0.2,0,0.4,0,0.7,0c3.5,0.3,9,0.3,12.9,0.3c2.1,0,4.2,0,6.2,0c1.7,0,3.4,0,4.8,0c2.7,0,4.4,0,5,0.1
		C109.4,26.4,109.3,27,108.9,27.8z"/>
	<path id="nose" class="st0" d="M42.7,33.5c-1.6,1.2-1.1,2.6,0.7,2.8c1.7,0.2,1.9,0.3,3.5-0.9c1.7-1.3,2-3.5,0-3.3
		C44.8,32.4,43.5,32.9,42.7,33.5"/>
	<path id="eye-left" class="st0" d="M38.1,34.4c0,1.1-0.9,2-2,2c-1.1,0-2-0.9-2-2c0-1.1,0.9-2,2-2C37.2,32.4,38.1,33.3,38.1,34.4"/>
	<path id="eye-right" class="st0" d="M60.7,28.9c0,1.1-0.9,2-2,2c-1.1,0-2-0.9-2-2c0-1.1,0.9-2,2-2C59.8,27,60.7,27.9,60.7,28.9"/>
</g>
<path class="st3" d="M48.8,100.3c0,0-11.4,4.2-23.2-3.3"/>
<path class="st2" d="M66,52.4c0,0,12.1,16,5.2,30.9"/>
<path class="st2" d="M75.4,55.2c0,0,9.7,13.9,4.2,27"/>
<path d="M91,15.9c-0.6,0-1.2,0-1.8,0.1c-2.3,0.4-4.7,0.8-7,1.1c-1,0.1-2.1,0.4-2.7-0.7c-0.7-1.1,0.2-1.8,0.9-2.6
	c1.1-1.3,0.8-2.1-0.8-2.4c-0.3-0.1-0.6-0.1-0.9-0.1c-3.8,0.4-7.7,0.7-11.5,1.2c-2.5,0.3-3.3,0-3.9-2.4c-0.4-1.4-0.8-1.8-2.1-1.2
	c-2.9,1.2-5.8,2.4-8.4,4c-1.7,1-2.9,2.9-4.3,4.3c0.1,0.1,0.2,0.3,0.2,0.4c11.9-2.5,23.3-1.6,33.7,5.1C84.3,19.1,88.2,18.4,91,15.9z"
	/>
<path d="M108.7,84.5c-1.6-4.4-3.1-8-4.4-11.7c-3.1-8.7-4.1-17.3,0-26.4c1.4-3.2,1.5-7,0.7-10.2c-4.7-0.1-9.1-0.1-13.7-0.2
	c3.4,13,5.4,26.7,6.7,40.8c0.1,0.8,0.5,1.7,0.9,2C102,80.8,105.1,82.5,108.7,84.5z"/>
<path d="M101.7,93.4c0.2-0.1,0.4-0.1,0.6-0.2c-1.1-5.9-2.2-11.7-3.3-17.6c-0.3,0-0.5,0.1-0.8,0.1c-1.4,3.9-2.8,7.9-4.1,11.5
	C96.8,89.5,99.3,91.4,101.7,93.4z"/>
<path class="st10" d="M90.1,99.3c-3.5,2-7,4.1-10.6,6c-9.5,5.3-19.2,10.2-29.6,13.9c-7,2.4-14.1,4.5-21.7,3.9
	c0.2,0.4,0.3,0.7,0.5,1.2c-2.4,0.3-4.6,0.6-7.2,0.9c1.3,1.1,2.5,2.1,3.6,3.1c-0.1,0.1-0.1,0.1-0.2,0.2c-3.1-0.8-6.1-1.6-9.2-2.4
	c-0.1,0.1-0.1,0.1-0.2,0.2c1.6,1.6,3.2,3.2,4.8,4.9c-0.1,0.1-0.1,0.2-0.2,0.2c-3-0.6-6.1-1.1-9.6-1.8c2,2.2,3.7,4.1,5.7,6.4
	c-2.1-0.5-3.9-0.9-5.6-1.4c-0.1,0.1-0.2,0.2-0.3,0.3c2.2,1.3,4.2,2.8,6.5,4c9.3,4.9,19.7,5.4,31,2.4c5.2-1.4,10.3-3,15-5.5
	c7.1-3.8,11.3-9.3,14.8-15.3c3.7-6.5,7.6-12.9,11.4-19.3c0.4-0.6,0.9-1.2,1.3-1.8C90.3,99.4,90.2,99.4,90.1,99.3z"/>
</svg>
