<svg id="Livello_1" data-name="Livello 1" xmlns="http://www.w3.org/2000/svg" viewBox="0 0 59.67 73.19"><defs><style>.cls-1,.cls-10,.cls-2,.cls-3,.cls-5,.cls-6,.cls-7,.cls-8,.cls-9{fill-rule:evenodd;}.cls-2{fill:#6a3e00;}.cls-3,.cls-4{fill:none;stroke:#000;stroke-miterlimit:10;}.cls-5{fill:#bf2e00;}.cls-6{fill:#fff;}.cls-7{fill:#aa6f07;}.cls-8{fill:#c9812b;}.cls-9{fill:#f80;}.cls-10{fill:#4c1e07;}.cls-11{fill:#020201;}</style></defs><title>coppuu-wapuu</title><g id="wapuu"><path class="cls-1" d="M103.86,18.85a16.6,16.6,0,0,0-3.39-.14h-6c-1.83,0-4.39,0-6.21-.12a17.52,17.52,0,0,0-10-3.36c-8-.25-15.18,3.23-19.05,9.22a15,15,0,0,1-4.42,2.76,2.14,2.14,0,0,0-1.71,2.32A2.53,2.53,0,0,0,55,31.64a4.2,4.2,0,0,0-.41.44,4,4,0,0,0-1,3.28,3.35,3.35,0,0,0,.17.62A20.29,20.29,0,0,0,51,46.3,20.9,20.9,0,0,0,51.17,49,5.1,5.1,0,0,0,50.3,49a4.53,4.53,0,0,0-3.55,1.66A5.16,5.16,0,0,0,45.81,55c.7,3.39,5.85,9.11,9.95,10.1a4.75,4.75,0,0,0,1.15.14A2.93,2.93,0,0,0,59.46,64a3.37,3.37,0,0,0,.39-.84,20.24,20.24,0,0,0,9.46,3.48,3.86,3.86,0,0,0,4,2.82A5.86,5.86,0,0,0,78,67.25h.31A19.77,19.77,0,0,0,81.17,67l-.28.28a18,18,0,0,1,2.89-1.09,23.81,23.81,0,0,1,2.69-1.86,11.79,11.79,0,0,1,3-1.12c.43-.07.87-.12,1.3-.17l0-.08c8.83-6.74,8.13-25.28,5.2-33.55q-.3-.86-.66-1.68a9.55,9.55,0,0,0,1.06.06,7.89,7.89,0,0,0,2.34-.34c4.59-1.37,6.67-4.78,6.62-6.65A2,2,0,0,0,103.86,18.85Z" transform="translate(-45.68 -11.42)"/><path id="WordPress-blue2" class="cls-2" d="M88.75,40.53C85.9,38,83.94,36.4,81.11,35.82c-1.89-.39-4.16.11-6.16.55a13.13,13.13,0,0,1-3.84.52A3.53,3.53,0,0,1,68,34.8c-.25-.79-.18-2,1.56-3.57a10.06,10.06,0,0,1,2.54-1.6,8.4,8.4,0,0,1-4-.95c-1.68,2.33-6,4-7.26,3.44a3.05,3.05,0,0,1-.92-.66l-.08.06a2.54,2.54,0,0,1,.71,1.31,3.42,3.42,0,0,1-1,3.08,3.74,3.74,0,0,1-2.57,1.17,2.2,2.2,0,0,1-1.54-.59,18.61,18.61,0,0,0-2.78,9.81,18.84,18.84,0,0,0,.64,4.84c1.76,1.45,4.66,7.22,5.29,8.66a2.33,2.33,0,0,1,.12.3A18.71,18.71,0,0,0,69.93,65a20.92,20.92,0,0,1,0-2.24,15.51,15.51,0,0,0-.06-2.67c-.1-.65-.27-1.35-.44-2.08-.66-2.75-1.41-5.86,1.22-7.61a2.86,2.86,0,0,1,1.63-.51c2.36,0,4.5,2.85,5.61,5a9,9,0,0,1,6.93-4.28,9.52,9.52,0,0,1,4.21.49,18.35,18.35,0,0,0,.65-4.85,18.11,18.11,0,0,0-.93-5.77" transform="translate(-45.68 -11.42)"/><path class="cls-3" d="M78.42,40.41s7.16-.74,11.57,3.21" transform="translate(-45.68 -11.42)"/><path class="cls-3" d="M90.52,46.79s-6,3-11.53-.44" transform="translate(-45.68 -11.42)"/><path class="cls-4" d="M61.61,58.87S62.4,64.2,63,64.2" transform="translate(-45.68 -11.42)"/><path class="cls-4" d="M67.47,59.48s.94,5.65,1.61,5.65" transform="translate(-45.68 -11.42)"/><path id="WordPress-blue1" class="cls-5" d="M76.53,36c-.54.1-1.07.22-1.58.33a13.13,13.13,0,0,1-3.84.52A3.53,3.53,0,0,1,68,34.8c-.25-.79-.18-2,1.56-3.57l.08-.06a14.16,14.16,0,0,0-3.52-.68c-1.93,1.3-4.37,2-5.3,1.63a3.05,3.05,0,0,1-.92-.66l-.08.06a2.47,2.47,0,0,1,.71,1.31,3.42,3.42,0,0,1-1,3.08,3.74,3.74,0,0,1-2.57,1.17,2.16,2.16,0,0,1-1.54-.6,18.67,18.67,0,0,0-2.78,9.82,18.47,18.47,0,0,0,.64,4.84c1.18,1,2.87,3.88,4.05,6.14a14.62,14.62,0,0,0,12.34,1.54l-.18-.77c-.66-2.75-1.41-5.86,1.22-7.61a2.86,2.86,0,0,1,1.63-.51c1.81,0,3.5,1.68,4.68,3.45A14.53,14.53,0,0,0,76.53,36" transform="translate(-45.68 -11.42)"/><path id="WordPress-logo" class="cls-6" d="M63.82,56.16A7.54,7.54,0,0,1,61.55,56a29.72,29.72,0,0,1,.82-10.66A75.12,75.12,0,0,0,67,55.26a9,9,0,0,1-3.2.9m-3.7-.61c-6.31-2.86-7.47-9.65-5.35-14.88.08,5.17,1.53,9.21,5.35,14.88m8.54-1.27c1-4.31,2.66-8.43,3.64-12.75A8.68,8.68,0,0,0,72.36,38c2.91,4.55,2.58,11.62-3.7,16.33m-13-15.35C58.5,34.55,64,31,69.93,35.36c0,0-3.84.18-1.08,4.25,1.49,2.2,1.59,4,.41,7.56-.43,1.77-.56,2.31-.94,4.13a82.33,82.33,0,0,1-4.47-12.77c1-.15,2.2-.32,1.6-1-.08-.08-5.51.46-5.56.47-.42.07-.49.56-.49.56,0,.39,0,.39,1.2.32a31.94,31.94,0,0,0,1.22,4.87,35.45,35.45,0,0,0-1.21,8.36C58.14,47.2,57.15,43.78,57,39.51c.35-.22.82-.13,1.13-.45s.32-.71,0-.76c-.93-.21-1.65.46-2.49.63m8.6-6.47c-9.36.77-15.44,14.86-7.16,22.24s18.76-2.18,18.4-11.14c-.28-7-6-11.35-11.24-11.1" transform="translate(-45.68 -11.42)"/><path id="sole-left" class="cls-7" d="M77.41,57.72v-.07c-.05-.2-.11-.41-.17-.63-.53-1.89-3-5.67-5-5.67a1.47,1.47,0,0,0-.84.27c-1.68,1.12-1.34,3.14-.63,6.1.17.73.35,1.48.46,2.19a16.78,16.78,0,0,1,.08,2.94c0,1.54-.11,3.13.56,3.82a1.83,1.83,0,0,0,1.38.44,4.45,4.45,0,0,0,.53,0l.15,0,.34-.08.15,0a2.19,2.19,0,0,0,.33-.12l.09,0a2.32,2.32,0,0,0,.38-.21.05.05,0,0,0,0,0,2.32,2.32,0,0,0,.3-.22.27.27,0,0,0,.08-.07l.23-.2L76,66l.23-.26,0,0,.22-.3a.43.43,0,0,1,0-.07c.05-.08.1-.15.14-.23l.06-.1.09-.19a.54.54,0,0,0,0-.11,1.11,1.11,0,0,0,.07-.16l.12-.3v0c0-.07,0-.13.07-.19.08-.26.11-.45.12-.48a.29.29,0,0,1,0-.09,9.21,9.21,0,0,0,.31-5.18c0-.19-.08-.38-.13-.57" transform="translate(-45.68 -11.42)"/><path id="sole-right-outline" class="cls-1" d="M56.91,64.2h0a3.72,3.72,0,0,1-.9-.12c-3.6-.86-8.53-6.27-9.16-9.28a4.12,4.12,0,0,1,.73-3.5A3.47,3.47,0,0,1,50.3,50a4.65,4.65,0,0,1,2.84,1c1.76,1.35,4.73,7.26,5.37,8.72.27.61.8,2.45.06,3.58a1.87,1.87,0,0,1-1.66.82ZM50.3,51.1a2.41,2.41,0,0,0-1.9.87,3,3,0,0,0-.5,2.62c.54,2.62,5.2,7.7,8.36,8.46a2.73,2.73,0,0,0,.65.09.83.83,0,0,0,.77-.34,3.4,3.4,0,0,0-.14-2.57c-.88-2-3.65-7.23-5-8.31a3.67,3.67,0,0,0-2.2-.82Z" transform="translate(-45.68 -11.42)"/><path id="sole-right" class="cls-7" d="M48.4,52a3,3,0,0,0-.5,2.62c.54,2.62,5.2,7.7,8.36,8.46a2.73,2.73,0,0,0,.65.09.83.83,0,0,0,.77-.34,3.4,3.4,0,0,0-.14-2.57c-.88-2-3.65-7.23-5-8.31a3.67,3.67,0,0,0-2.2-.82,2.41,2.41,0,0,0-1.9.87" transform="translate(-45.68 -11.42)"/><path id="hand-right-outline" class="cls-1" d="M56.9,37.08h0a2.21,2.21,0,0,1-2.24-1.92,3,3,0,0,1,.78-2.4A4.65,4.65,0,0,1,58.57,31a1.46,1.46,0,0,1,.6.11,2.28,2.28,0,0,1,1.31,1.69,3.42,3.42,0,0,1-1,3.08,3.74,3.74,0,0,1-2.57,1.17Zm1.67-5a3.66,3.66,0,0,0-2.31,1.35A2,2,0,0,0,55.71,35a1.13,1.13,0,0,0,1.19,1,2.74,2.74,0,0,0,1.82-.85,2.37,2.37,0,0,0,.71-2.11,1.18,1.18,0,0,0-.65-.92.46.46,0,0,0-.21,0Z" transform="translate(-45.68 -11.42)"/><path id="hand-right" class="cls-7" d="M55.71,35a1.13,1.13,0,0,0,1.19,1,2.74,2.74,0,0,0,1.82-.85,2.37,2.37,0,0,0,.71-2.11,1.18,1.18,0,0,0-.65-.92.46.46,0,0,0-.21,0,3.66,3.66,0,0,0-2.31,1.35A2,2,0,0,0,55.71,35" transform="translate(-45.68 -11.42)"/><path id="ear-left" class="cls-8" d="M94.49,20.86c-2.12,0-5.16,0-7-.17h-.4a5,5,0,0,0,1,1.08l.14.12c3.7,3.15,6.48,3.81,8.17,3.81h0a5.84,5.84,0,0,0,1.73-.25,7.89,7.89,0,0,0,4.82-3.63,2.1,2.1,0,0,0,.28-.92c-.35,0-1.27-.05-2.74-.05h-6" transform="translate(-45.68 -11.42)"/><path id="ear-right" class="cls-8" d="M55.3,29.31s-.06,0-.06,0a.45.45,0,0,0,.15.14c.22.14,1.1.55,3.48-.08a5,5,0,0,1,.19-2.06,14.13,14.13,0,0,1-3.76,2" transform="translate(-45.68 -11.42)"/><path class="cls-9" d="M86.47,64.36a12.4,12.4,0,0,1,1.86-.8c0-.1.09-.2.12-.3a21.21,21.21,0,0,1-3.11,1.53c-.08.16-.18.32-.27.47A12.82,12.82,0,0,1,86.47,64.36Z" transform="translate(-45.68 -11.42)"/><path id="left-body" class="cls-10" d="M94,30.15a23.34,23.34,0,0,0-2.17-4.58,20.8,20.8,0,0,1-4.28-2.88l-.13-.11c-1.74-1.46-1.5-2.12-1.43-2.34a.89.89,0,0,1,.33-.41,15.55,15.55,0,0,0-8-2.45c-7.37-.22-13.83,2.91-17.29,8.38A5,5,0,0,0,60,29.7a2.34,2.34,0,0,0,1.18,1.44c.67.3,4.94-1.18,6.18-3.43a.54.54,0,0,1,.33-.26.52.52,0,0,1,.42.06c2.91,1.79,6.19,1,9,.07a.53.53,0,0,1,.67.34.5.5,0,0,1,0,.43,14,14,0,0,1,5.42.89.53.53,0,1,1-.39,1c-4.08-1.61-9.61-.82-12.59,1.8-1,.9-1.46,1.77-1.25,2.44a2.56,2.56,0,0,0,2.26,1.36,12.79,12.79,0,0,0,3.5-.5c2.1-.46,4.49-1,6.61-.55,3.44.71,5.72,2.77,9.18,5.89l.42.38a.53.53,0,0,1-.36.93.5.5,0,0,1-.34-.13,19.48,19.48,0,0,1,.52,4.45A19.27,19.27,0,0,1,90,51.6a4.52,4.52,0,0,1,1.34,1.11.54.54,0,0,1-.85.66c-.91-1.19-3.26-1.89-5.57-1.65a8,8,0,0,0-6.5,4.43c.07.18.12.34.16.48a11.07,11.07,0,0,1,0,7.22,6.15,6.15,0,0,1-.4,1.28,19.22,19.22,0,0,0,10.89-3.54c8.33-5.73,7.6-23.78,4.88-31.44" transform="translate(-45.68 -11.42)"/><path class="cls-1" d="M103.6,19.88a18,18,0,0,0-3.13-.11h-6c-2,0-4.71,0-6.57-.13a16.57,16.57,0,0,0-9.64-3.35c-7.73-.23-14.51,3.07-18.18,8.83a15.54,15.54,0,0,1-5,3.13,1.12,1.12,0,0,0-.85.76,1.15,1.15,0,0,0,.32,1.12,2.85,2.85,0,0,0,2.1.66,9.8,9.8,0,0,0,2.51-.39,3.4,3.4,0,0,0,1.62,1.7c1.31.58,5.58-1.11,7.26-3.44a8.4,8.4,0,0,0,4,.95,10.06,10.06,0,0,0-2.54,1.6C67.77,32.76,67.7,34,68,34.8a3.53,3.53,0,0,0,3.16,2.09A13.13,13.13,0,0,0,75,36.37a15.73,15.73,0,0,1,5.17-.68s.48,0,1,.13c3.3.57,6.78,3.87,7.64,4.71a18.11,18.11,0,0,1,.93,5.77A18.35,18.35,0,0,1,89,51.15a9.52,9.52,0,0,0-4.21-.49,9,9,0,0,0-6.93,4.28c-1.11-2.16-3.25-5-5.61-5a2.86,2.86,0,0,0-1.63.51c-2.63,1.75-1.88,4.86-1.22,7.61.17.73.34,1.43.44,2.08a15.51,15.51,0,0,1,.06,2.67c-.06,1.84-.13,3.74,1,4.85a3.16,3.16,0,0,0,2.4.88,5,5,0,0,0,4.34-2.35h.61a19.12,19.12,0,0,0,5.54-.85c-.25.39-.52.76-.81,1.13l.81-.25,1.29-1c.09-.15.19-.31.27-.47a21.21,21.21,0,0,0,3.11-1.53c0,.1-.08.2-.12.3a8.91,8.91,0,0,1,1.12-.32l.13,0q.15-.44.27-.87c4.88-3.49,6.44-10.42,6.88-15.65A44.71,44.71,0,0,0,95,29.8a25.82,25.82,0,0,0-1.57-3.57,9.27,9.27,0,0,0,3,.53h0a7,7,0,0,0,2-.3c4.15-1.24,5.89-4.31,5.86-5.6A1,1,0,0,0,103.6,19.88ZM58.87,29.4c-2.38.63-3.26.22-3.48.08a.45.45,0,0,1-.15-.14s0,0,.06,0a13.84,13.84,0,0,0,3.76-2A5,5,0,0,0,58.87,29.4ZM77.23,63.47a.29.29,0,0,0,0,.09c0,.15-.67,3.55-3.92,3.55a1.83,1.83,0,0,1-1.38-.44c-.67-.69-.61-2.28-.56-3.82a16.81,16.81,0,0,0-.08-2.94c-.11-.71-.29-1.46-.46-2.19-.71-3-1-5,.63-6.1a1.47,1.47,0,0,1,.84-.27c1.91,0,4.42,3.78,5,5.67A9.75,9.75,0,0,1,77.23,63.47ZM94,30.15c2.72,7.66,3.45,25.71-4.88,31.44A19.22,19.22,0,0,1,78.2,65.13a6.15,6.15,0,0,0,.4-1.28,11.07,11.07,0,0,0,0-7.22c0-.14-.09-.3-.16-.48a8,8,0,0,1,6.5-4.43c2.31-.24,4.66.46,5.57,1.65a.54.54,0,0,0,.85-.66A4.52,4.52,0,0,0,90,51.6a19.27,19.27,0,0,0,.74-5.3,19.48,19.48,0,0,0-.52-4.45.5.5,0,0,0,.34.13.53.53,0,0,0,.36-.93l-.42-.38c-3.46-3.12-5.74-5.18-9.18-5.89-2.12-.44-4.51.09-6.61.55a12.79,12.79,0,0,1-3.5.5A2.56,2.56,0,0,1,69,34.47c-.21-.67.23-1.54,1.25-2.44,3-2.62,8.51-3.41,12.59-1.8a.53.53,0,1,0,.39-1,14,14,0,0,0-5.42-.89.5.5,0,0,0,0-.43.53.53,0,0,0-.67-.34c-2.83.9-6.11,1.72-9-.07a.52.52,0,0,0-.42-.06.54.54,0,0,0-.33.26c-1.24,2.25-5.51,3.73-6.18,3.43A2.34,2.34,0,0,1,60,29.7,5,5,0,0,1,61,25.76c3.46-5.47,9.92-8.6,17.29-8.38a15.55,15.55,0,0,1,8,2.45.89.89,0,0,0-.33.41c-.07.22-.31.88,1.43,2.34l.13.11a20.8,20.8,0,0,0,4.28,2.88A23.34,23.34,0,0,1,94,30.15Zm9-8.34a7.89,7.89,0,0,1-4.82,3.63,5.84,5.84,0,0,1-1.73.25h0c-1.69,0-4.47-.66-8.17-3.81l-.14-.12a5,5,0,0,1-1-1.08h.4c1.88.15,4.92.17,7,.17h6c1.47,0,2.39,0,2.74.05A2.1,2.1,0,0,1,102.93,21.81Z" transform="translate(-45.68 -11.42)"/><path id="nose" class="cls-1" d="M66.9,24.89c-.84.63-.59,1.42.36,1.54A1.8,1.8,0,0,0,69.15,26c.95-.71,1.07-1.89,0-1.77a4.57,4.57,0,0,0-2.25.71" transform="translate(-45.68 -11.42)"/><path id="eye-left" class="cls-1" d="M64.42,25.36a1.07,1.07,0,1,1-2.13,0,1.07,1.07,0,0,1,2.13,0" transform="translate(-45.68 -11.42)"/><path id="eye-right" class="cls-1" d="M76.73,22.41a1.07,1.07,0,1,1-1.07-1.07,1.07,1.07,0,0,1,1.07,1.07" transform="translate(-45.68 -11.42)"/></g><path class="cls-4" d="M70.23,61.25a15.18,15.18,0,0,1-12.65-1.77" transform="translate(-45.68 -11.42)"/><path class="cls-3" d="M79.62,35.15s6.6,8.68,2.85,16.8" transform="translate(-45.68 -11.42)"/><path class="cls-3" d="M84.73,36.68S90,44.26,87,51.35" transform="translate(-45.68 -11.42)"/><path d="M93.21,15.31c-.33,0-.67,0-1,.07-1.27.2-2.54.44-3.81.62-.52.08-1.13.22-1.47-.36s.13-1,.46-1.41c.58-.72.43-1.13-.46-1.33a1.46,1.46,0,0,0-.46-.06c-2.09.22-4.17.39-6.25.68-1.33.18-1.79,0-2.15-1.3-.22-.78-.41-1-1.14-.66a32.19,32.19,0,0,0-4.55,2.17A13.4,13.4,0,0,0,70,16.08l.13.21c6.46-1.34,12.65-.88,18.31,2.76C89.57,17.08,91.69,16.65,93.21,15.31Z" transform="translate(-45.68 -11.42)"/><path d="M102.85,52.66c-.89-2.37-1.67-4.34-2.38-6.37-1.66-4.71-2.24-9.43,0-14.37a8.78,8.78,0,0,0,.37-5.53l-7.44-.1A140.18,140.18,0,0,1,97,48.51a1.76,1.76,0,0,0,.5,1.07C99.21,50.61,100.9,51.55,102.85,52.66Z" transform="translate(-45.68 -11.42)"/><path d="M99,57.5l.33-.08q-.9-4.79-1.79-9.55l-.41.05c-.77,2.14-1.53,4.28-2.24,6.25Z" transform="translate(-45.68 -11.42)"/><path class="cls-11" d="M92.74,60.69C90.82,61.79,88.9,62.9,87,64a101,101,0,0,1-16.12,7.56C67,72.87,63.18,74,59,73.66l.27.67-3.9.49,2,1.66-.11.12-5-1.3-.11.1L54.77,78l-.1.13-5.23-1,3.12,3.46-3-.74-.16.18c1.17.73,2.29,1.53,3.53,2.17,5.08,2.66,10.74,3,16.87,1.34a37.39,37.39,0,0,0,8.15-3,20.09,20.09,0,0,0,8-8.31c2-3.52,4.13-7,6.21-10.5.2-.35.47-.67.7-1Z" transform="translate(-45.68 -11.42)"/></svg>